<?xml version="1.0" encoding="UTF-8"?>
<svg width="100px" height="21px" viewBox="0 0 100 21" version="1.1" xmlns="http://www.w3.org/2000/svg" xmlns:xlink="http://www.w3.org/1999/xlink">
    <title>Group</title>
    <defs>
        <linearGradient x1="0%" y1="0%" x2="100%" y2="100%" id="linearGradient-1">
            <stop stop-color="#F8BFBF" offset="0%"></stop>
            <stop stop-color="#EE8B8B" offset="100%"></stop>
        </linearGradient>
    </defs>
    <g id="Designs" stroke="none" stroke-width="1" fill="none" fill-rule="evenodd">
        <g id="Mobile---Error-State" transform="translate(-32.000000, -31.000000)">
            <g id="Group" transform="translate(32.000000, 31.000000)">
                <path d="M31.5786871,12.5059759 L34.9699146,20.4753606 L33.1499558,20.4753606 L32.426494,18.7006182 L29.0804828,18.7006182 L28.3570209,20.4753606 L26.5822785,20.4753606 L29.973506,12.5059759 L31.5786871,12.5059759 Z M42.4381513,12.5624963 C42.9129255,12.5624963 43.3368247,12.6284362 43.7098616,12.7603179 C44.0828985,12.8921997 44.3994099,13.0787153 44.6594054,13.3198705 C44.9194008,13.5610256 45.1191044,13.8492771 45.2585222,14.1846335 C45.3979401,14.5199899 45.4676479,14.8911372 45.4676479,15.2980865 L45.4676479,15.3206947 C45.4676479,15.7803968 45.3847521,16.183572 45.2189579,16.5302326 C45.0531637,16.8768931 44.8252002,17.1670286 44.5350603,17.4006476 C44.2449205,17.6342667 43.9058012,17.8094784 43.5176921,17.9262879 C43.129583,18.0430974 42.7132198,18.1015013 42.2685899,18.1015013 L40.9460112,18.1015013 L40.9460112,20.4753606 L39.205181,20.4753606 L39.205181,12.5624963 L42.4381513,12.5624963 Z M53.0037092,12.5624963 C53.4784834,12.5624963 53.9023826,12.6284362 54.2754195,12.7603179 C54.6484564,12.8921997 54.9649678,13.0787153 55.2249632,13.3198705 C55.4849586,13.5610256 55.6846622,13.8492771 55.8240801,14.1846335 C55.9634979,14.5199899 56.0332058,14.8911372 56.0332058,15.2980865 L56.0332058,15.3206947 C56.0332058,15.7803968 55.9503099,16.183572 55.7845157,16.5302326 C55.6187216,16.8768931 55.390758,17.1670286 55.1006182,17.4006476 C54.8104784,17.6342667 54.471359,17.8094784 54.0832499,17.9262879 C53.6951408,18.0430974 53.2787776,18.1015013 52.8341478,18.1015013 L51.511569,18.1015013 L51.511569,20.4753606 L49.7707389,20.4753606 L49.7707389,12.5624963 L53.0037092,12.5624963 Z M64.6544598,12.5059759 L68.0456874,20.4753606 L66.2257286,20.4753606 L65.5022667,18.7006182 L62.1562555,18.7006182 L61.4327936,20.4753606 L59.6580512,20.4753606 L63.0492788,12.5059759 L64.6544598,12.5059759 Z M75.8982632,12.5624963 C76.8402755,12.5624963 77.5731502,12.7923439 78.096909,13.2520459 C78.6206679,13.711748 78.8825434,14.3523068 78.8825434,15.1737415 L78.8825434,15.1963497 C78.8825434,15.8369181 78.7261717,16.3587851 78.4134236,16.7619664 C78.1006755,17.1651477 77.6918483,17.4609352 77.1869296,17.6493377 L79.1199293,20.4753606 L77.0851928,20.4753606 L75.389579,17.943244 L74.0217839,17.943244 L74.0217839,20.4753606 L72.2809538,20.4753606 L72.2809538,12.5624963 L75.8982632,12.5624963 Z M89.4367972,12.5624963 L89.4367972,14.1111569 L85.1977627,14.1111569 L85.1977627,15.7163379 L88.928113,15.7163379 L88.928113,17.2649985 L85.1977627,17.2649985 L85.1977627,18.9267 L89.4933176,18.9267 L89.4933176,20.4753606 L83.4682367,20.4753606 L83.4682367,12.5624963 L89.4367972,12.5624963 Z M95.7972329,12.5624963 L95.7972329,18.8927878 L99.7423609,18.8927878 L99.7423609,20.4753606 L94.0564027,20.4753606 L94.0564027,12.5624963 L95.7972329,12.5624963 Z M30.7534884,14.5972329 L29.7022078,17.1632617 L31.8047689,17.1632617 L30.7534884,14.5972329 Z M63.8292611,14.5972329 L62.7779806,17.1632617 L64.8805417,17.1632617 L63.8292611,14.5972329 Z M42.2911981,14.1337651 L40.9460112,14.1337651 L40.9460112,16.5528407 L42.3251104,16.5528407 C42.7622041,16.5528407 43.1013235,16.437917 43.3424787,16.2080659 C43.5836338,15.9782149 43.7042096,15.6937315 43.7042096,15.354607 L43.7042096,15.3319988 C43.7042096,14.9401217 43.5779818,14.6424502 43.3255225,14.4389756 C43.0730632,14.2355009 42.7282919,14.1337651 42.2911981,14.1337651 Z M52.856756,14.1337651 L51.511569,14.1337651 L51.511569,16.5528407 L52.8906682,16.5528407 C53.327762,16.5528407 53.6668813,16.437917 53.9080365,16.2080659 C54.1491917,15.9782149 54.2697674,15.6937315 54.2697674,15.354607 L54.2697674,15.3319988 C54.2697674,14.9401217 54.1435397,14.6424502 53.8910804,14.4389756 C53.6386211,14.2355009 53.2938497,14.1337651 52.856756,14.1337651 Z M75.75131,14.1337651 L74.0217839,14.1337651 L74.0217839,16.4058875 L75.7852223,16.4058875 C76.2147799,16.4058875 76.5444793,16.3041517 76.7743303,16.1006771 C77.0041813,15.8972024 77.1191051,15.6259069 77.1191051,15.2867825 L77.1191051,15.2641743 C77.1191051,14.8873693 76.9985293,14.6047689 76.7573742,14.4163674 C76.516219,14.2279649 76.1808676,14.1337651 75.75131,14.1337651 Z M52.9245805,0.655519576 C53.5048601,0.655519576 54.0380311,0.742183414 54.5241095,0.915513689 C55.0101879,1.08884396 55.4566951,1.3375315 55.8636444,1.66158375 L54.959317,2.9728584 C54.6051204,2.73170324 54.258465,2.5414196 53.9193406,2.40200177 C53.5802161,2.26258394 53.2410968,2.19287607 52.9019723,2.19287607 C52.5628479,2.19287607 52.3085084,2.25881594 52.1389461,2.39069767 C51.9693839,2.52257941 51.8846041,2.6864871 51.8846041,2.88242567 L51.8846041,2.90503385 C51.8846041,3.03314753 51.909096,3.14430333 51.9580807,3.23850456 C52.0070653,3.3327058 52.0956131,3.41748564 52.2237268,3.49284663 C52.3518405,3.56820762 52.5270522,3.63979948 52.7493671,3.70762437 C52.971682,3.77544926 53.2523975,3.85457712 53.5915219,3.9450103 C53.9909352,4.05051569 54.3470105,4.16920747 54.6597586,4.3010892 C54.9725067,4.43297093 55.2362662,4.59122663 55.451045,4.77586105 C55.6658239,4.96049548 55.8278476,5.17715507 55.937121,5.42584634 C56.0463944,5.6745376 56.1010303,5.97220904 56.1010303,6.31886959 L56.1010303,6.34147777 C56.1010303,6.73335492 56.0294385,7.08189426 55.8862526,7.38710627 C55.7430667,7.69231828 55.5433631,7.9485418 55.2871357,8.15578452 C55.0309083,8.36302724 54.7257009,8.52128294 54.3715043,8.63055637 C54.0173076,8.73982981 53.6254364,8.79446571 53.1958787,8.79446571 C52.5929908,8.79446571 52.0014159,8.6908459 51.4211363,8.48360318 C50.8408567,8.27636046 50.3133377,7.95796506 49.8385634,7.52840742 L50.8672358,6.29626141 C51.2289685,6.59016926 51.6001158,6.82378483 51.9806888,6.9971151 C52.3612618,7.17044538 52.7776251,7.25710921 53.229791,7.25710921 C53.5915237,7.25710921 53.8722392,7.19116934 54.0719458,7.05928761 C54.2716525,6.92740588 54.3715043,6.74465822 54.3715043,6.51103915 L54.3715043,6.48843097 C54.3715043,6.37538948 54.3507803,6.27553767 54.3093318,6.18887253 C54.2678832,6.1022074 54.1887554,6.02119555 54.0719458,5.94583456 C53.9551363,5.87047357 53.7931126,5.79511371 53.5858699,5.71975272 C53.3786272,5.64439173 53.1092157,5.56526388 52.7776273,5.48236679 C52.3782141,5.38439751 52.0164868,5.27512571 51.6924345,5.15454813 C51.3683822,5.03397055 51.0933188,4.88513483 50.8672358,4.7080365 C50.6411528,4.53093818 50.4659412,4.31051059 50.3415955,4.04674713 C50.2172499,3.78298367 50.155078,3.45516828 50.155078,3.06329114 L50.155078,3.04068296 C50.155078,2.67895021 50.2229019,2.35301882 50.3585517,2.06287901 C50.4942014,1.7727392 50.6844851,1.52216767 50.9294083,1.3111569 C51.1743315,1.10014613 51.466351,0.938122437 51.8054754,0.825080954 C52.1445999,0.71203947 52.5176312,0.655519576 52.9245805,0.655519576 Z M30.9343538,0.768560495 C31.7482525,0.768560495 32.3869273,0.953192148 32.8503974,1.32246099 C33.3138675,1.69172984 33.5455991,2.18910491 33.5455991,2.81460112 L33.5455991,2.8372093 C33.5455991,3.06329227 33.5173391,3.2629959 33.4608184,3.43632617 C33.4042976,3.60965645 33.3289378,3.76602815 33.2347365,3.90544598 C33.1405353,4.04486381 33.0312635,4.16732358 32.9069179,4.27282897 C32.7825722,4.37833435 32.6488085,4.46876618 32.5056226,4.54412717 C32.9653246,4.71745745 33.327052,4.952957 33.5908154,5.25063291 C33.8545776,5.54830882 33.9864586,5.96090404 33.9864586,6.48843097 L33.9864586,6.51103915 C33.9864586,6.8727719 33.9167508,7.18928331 33.7773329,7.46058287 C33.6379151,7.73188243 33.4382115,7.957962 33.1782161,8.13882838 C32.9182207,8.31969475 32.6054772,8.4553425 32.2399764,8.54577568 C31.8744757,8.63620887 31.4694164,8.68142479 31.0247866,8.68142479 L27.260524,8.68142479 L27.260524,0.768560495 L30.9343538,0.768560495 Z M42.7546659,0.712040035 L46.1458934,8.68142479 L44.3259346,8.68142479 L43.6024728,6.90668237 L40.2564616,6.90668237 L39.5329997,8.68142479 L37.7582573,8.68142479 L41.1494848,0.712040035 L42.7546659,0.712040035 Z M66.651987,0.537179865 L66.651987,2.08584045 L62.4129526,2.08584045 L62.4129526,3.69102149 L66.1433029,3.69102149 L66.1433029,5.23968207 L62.4129526,5.23968207 L62.4129526,6.90138357 L66.7085075,6.90138357 L66.7085075,8.45004416 L60.6834266,8.45004416 L60.6834266,0.537179865 L66.651987,0.537179865 Z M30.9682661,5.41454224 L28.9561378,5.41454224 L28.9561378,7.15537239 L31.0247866,7.15537239 C31.4091276,7.15537239 31.7105671,7.08566452 31.9291139,6.94624669 C32.1476608,6.80682886 32.2569326,6.59016926 32.2569326,6.29626141 L32.2569326,6.27365322 C32.2569326,6.00988976 32.1551968,5.80076615 31.9517221,5.64627613 C31.7482474,5.4917861 31.4204321,5.41454224 30.9682661,5.41454224 Z M41.9294672,2.80329703 L40.8781866,5.36932588 L42.9807477,5.36932588 L41.9294672,2.80329703 Z M30.6743597,2.29461289 L28.9561378,2.29461289 L28.9561378,3.96761849 L30.5613188,3.96761849 C30.9456599,3.96761849 31.2508673,3.90167861 31.4769503,3.76979688 C31.7030332,3.63791515 31.816073,3.42502355 31.816073,3.13111569 L31.816073,3.10850751 C31.816073,2.84474404 31.7181052,2.64315642 31.5221666,2.50373859 C31.326228,2.36432076 31.0436286,2.29461289 30.6743597,2.29461289 Z" id="Combined-Shape" fill="#423A3A" fill-rule="nonzero"></path>
                <path d="M9.81012658,0.688607595 C15.2281099,0.688607595 19.6202532,5.08075087 19.6202532,10.4987342 C19.6202532,15.9167175 15.2281099,20.3088608 9.81012658,20.3088608 C4.39214328,20.3088608 0,15.9167175 0,10.4987342 C0,5.08075087 4.39214328,0.688607595 9.81012658,0.688607595 Z M9.81012658,2.90379747 C5.44078521,2.90379747 1.89873418,6.30416646 1.89873418,10.4987342 C1.89873418,14.6933019 5.44078521,18.0936709 9.81012658,18.0936709 C14.179468,18.0936709 17.721519,14.6933019 17.721519,10.4987342 C17.721519,6.30416646 14.179468,2.90379747 9.81012658,2.90379747 Z" id="Combined-Shape" fill="url(#linearGradient-1)"></path>
            </g>
        </g>
    </g>
</svg>